<?xml version="1.0" standalone="no"?>
<!DOCTYPE svg PUBLIC "-//W3C//DTD SVG 20010904//EN"
 "http://www.w3.org/TR/2001/REC-SVG-20010904/DTD/svg10.dtd">
<svg version="1.0" xmlns="http://www.w3.org/2000/svg"
 width="148.000000pt" height="148.000000pt" viewBox="0 0 148.000000 148.000000"
 preserveAspectRatio="xMidYMid meet">

<g transform="translate(0.000000,148.000000) scale(0.100000,-0.100000)"
fill="#000000" stroke="none">
<path d="M687 1403 c-3 -5 -8 -42 -12 -83 -10 -120 -10 -120 -47 -113 -17 3
-38 12 -47 20 -9 7 -33 27 -53 44 l-38 31 0 -32 c0 -43 14 -66 60 -95 22 -14
40 -32 40 -41 0 -8 14 -28 31 -44 36 -32 34 -56 -6 -66 -34 -9 -63 18 -76 71
-8 31 -16 41 -32 42 -11 1 -26 -2 -33 -7 -7 -7 -38 2 -92 27 -45 20 -84 34
-87 31 -8 -7 41 -92 66 -114 21 -19 22 -19 15 4 -8 25 -1 27 34 7 14 -8 34
-14 44 -15 34 0 106 -41 106 -59 0 -9 -16 -33 -36 -52 l-36 -34 -16 25 c-9 14
-34 42 -54 63 -31 31 -38 34 -38 18 0 -10 -7 -21 -15 -24 -17 -7 -13 -60 6
-83 6 -8 29 -17 51 -21 48 -7 54 -19 35 -75 -20 -59 -45 -61 -86 -9 -21 27
-46 45 -72 52 -60 18 -71 38 -17 32 l43 -5 -24 20 -24 20 32 7 c42 9 29 22
-29 28 -25 2 -56 8 -69 12 -23 8 -24 7 -17 -31 11 -59 29 -80 75 -88 44 -7 69
-34 49 -54 -7 -7 -18 -12 -25 -12 -20 0 -15 -24 7 -38 11 -7 20 -19 20 -27 0
-19 4 -19 68 0 29 9 57 13 62 10 6 -3 10 -26 10 -51 l0 -44 -70 0 c-63 0 -70
2 -70 20 0 15 -7 20 -28 20 -15 0 -33 5 -38 10 -12 12 -136 -30 -131 -45 2 -5
46 -12 98 -15 94 -5 94 -5 91 -31 -5 -48 63 -59 130 -21 25 14 27 14 52 -13
14 -15 26 -34 26 -40 0 -7 10 -16 23 -19 12 -3 33 -14 46 -25 l24 -19 -42 -62
c-44 -67 -47 -83 -13 -88 25 -4 31 -19 36 -95 2 -31 7 -57 10 -57 3 0 10 0 16
0 12 0 36 46 45 89 6 29 5 33 -9 28 -10 -4 -16 -1 -16 7 0 7 -7 19 -15 26 -22
18 -19 33 16 84 32 48 49 56 68 32 13 -15 6 -40 -20 -74 -13 -16 -15 -29 -9
-40 5 -9 11 -26 15 -37 6 -20 7 -20 25 3 10 12 23 22 29 22 16 0 14 31 -5 75
-8 20 -12 40 -9 44 4 3 26 7 51 7 53 2 58 -9 49 -101 -7 -66 -23 -92 -50 -81
-18 7 -18 -7 -1 -87 6 -32 16 -58 21 -58 6 0 14 21 18 48 21 124 22 128 38
125 9 -1 21 4 28 11 9 12 18 11 55 -7 24 -12 50 -31 57 -43 17 -31 36 -29 42
5 7 37 -13 75 -40 77 -13 1 -31 9 -41 18 -10 9 -24 17 -30 17 -13 0 -42 51
-42 74 0 16 26 46 40 46 19 0 40 -34 40 -65 0 -42 21 -64 55 -58 23 5 25 8 19
42 -3 20 -14 42 -23 49 -59 46 -60 48 -30 86 26 32 49 33 78 2 19 -20 30 -23
60 -19 20 2 43 7 51 10 104 39 144 51 155 47 22 -9 28 16 9 37 -21 24 -104 28
-104 5 0 -25 -18 -28 -57 -7 -21 11 -56 23 -78 28 -35 7 -40 11 -38 33 3 35 3
47 -3 117 l-6 61 61 -1 c50 -1 65 2 83 20 12 13 19 26 15 30 -10 10 -139 5
-151 -7 -13 -13 -46 7 -46 29 0 13 10 21 33 25 47 9 64 25 70 69 6 35 5 37
-23 37 -22 0 -37 -10 -61 -40 -38 -47 -47 -49 -78 -16 -25 27 -20 46 23 95 15
17 17 25 9 28 -8 3 -11 14 -7 30 7 24 5 25 -22 19 -39 -10 -84 -64 -77 -93 4
-19 1 -21 -31 -19 -49 4 -54 12 -26 41 21 23 22 27 10 70 -15 53 -28 65 -46
41 -17 -23 -31 -14 -39 27 -9 45 -47 160 -55 170 -4 5 -10 5 -13 0z m40 -192
c16 16 28 -15 37 -92 l7 -56 -32 -7 c-68 -13 -69 -12 -69 58 0 35 3 78 7 96 6
32 6 32 22 11 13 -17 19 -19 28 -10z m166 -230 c23 -21 52 -43 64 -50 13 -6
26 -24 29 -39 4 -15 13 -36 20 -48 17 -26 34 -172 23 -201 -15 -40 -92 -111
-134 -122 -22 -6 -49 -17 -60 -24 -31 -21 -151 -15 -200 11 -89 45 -127 113
-133 234 -4 81 -3 90 23 130 54 86 165 147 268 148 53 0 61 -3 100 -39z"/>
<path d="M648 843 c-34 -20 -48 -34 -48 -50 0 -13 -11 -30 -25 -39 -46 -30
-20 -74 45 -74 16 0 17 3 7 30 -9 25 -9 33 5 46 27 27 48 10 48 -39 0 -42 1
-43 48 -59 91 -32 104 -31 168 3 82 44 85 47 78 78 -9 36 -23 49 -33 32 -7
-12 -18 -9 -54 15 -25 16 -53 34 -63 40 -14 8 -11 10 19 6 38 -4 51 10 20 22
-9 4 -51 9 -93 12 -69 4 -79 3 -122 -23z m127 7 c22 -9 22 -9 -53 -30 -47 -12
-58 -9 -49 14 8 21 67 31 102 16z m135 -125 c16 -19 -3 -45 -31 -45 -22 0 -22
0 -9 34 11 30 22 33 40 11z"/>
<path d="M886 1311 c-20 -22 -34 -101 -19 -101 6 0 14 15 18 33 l8 32 4 -30
c7 -59 13 -74 27 -69 10 4 14 24 12 80 -1 60 -4 74 -17 74 -9 0 -24 -9 -33
-19z"/>
<path d="M1119 1223 c-68 -57 -85 -81 -34 -47 20 13 28 14 40 4 13 -10 17 -7
30 23 8 20 15 39 15 42 0 12 -21 3 -51 -22z"/>
<path d="M1055 1110 c-10 -11 -13 -20 -8 -20 13 0 38 29 31 35 -3 3 -13 -4
-23 -15z"/>
<path d="M1178 1039 c-26 -15 -23 -32 3 -19 35 19 34 2 -1 -35 -18 -19 -31
-37 -28 -40 12 -13 70 9 80 31 6 12 24 28 40 35 16 6 27 17 25 23 -5 15 -97
19 -119 5z"/>
<path d="M1270 844 c0 -3 5 -14 11 -25 7 -15 7 -24 -2 -35 -6 -8 -9 -14 -5
-14 15 0 136 53 136 60 0 9 -60 20 -107 20 -18 0 -33 -3 -33 -6z"/>
<path d="M1141 741 c-49 -9 -49 -26 0 -45 34 -14 47 -15 71 -5 32 13 35 26 11
45 -19 14 -29 15 -82 5z"/>
<path d="M313 548 c-6 -7 -20 -34 -32 -60 -13 -27 -27 -48 -32 -48 -5 0 -9 -7
-9 -15 0 -16 61 -31 80 -20 6 4 8 15 5 24 -3 11 3 25 15 36 22 20 25 46 10 76
-12 22 -24 24 -37 7z"/>
<path d="M454 503 c-21 -4 -34 -28 -34 -65 0 -13 8 -18 26 -18 22 0 25 -3 21
-22 -4 -13 -16 -58 -27 -102 -12 -43 -18 -81 -15 -85 9 -8 75 68 75 87 0 9 -7
23 -15 32 -14 15 -13 25 10 94 14 42 25 79 25 81 0 6 -34 4 -66 -2z"/>
<path d="M1089 446 c20 -21 29 -36 22 -40 -21 -14 -10 -24 55 -55 72 -34 84
-37 84 -21 0 15 -72 110 -101 135 l-23 20 18 -28 c25 -40 15 -42 -29 -7 -51
40 -67 38 -26 -4z"/>
</g>
</svg>
